<?xml version="1.0" encoding="UTF-8"?>
<svg width="16px" height="16px" viewBox="0 0 16 16" version="1.1" xmlns="http://www.w3.org/2000/svg" xmlns:xlink="http://www.w3.org/1999/xlink">
    <!-- Generator: Sketch 46.2 (44496) - http://www.bohemiancoding.com/sketch -->
    <title>ic_arrow_blue</title>
    <desc>Created with Sketch.</desc>
    <defs></defs>
    <g id="01" stroke="none" stroke-width="1" fill="none" fill-rule="evenodd">
        <g id="Assets" transform="translate(-135.000000, -810.000000)" fill="#0088CC">
            <g id="Ic/Arrow/Blue" transform="translate(135.000000, 810.000000)">
                <g id="Group" transform="translate(4.000000, 1.000000)">
                    <path d="M4.04432655,8.8438172 L-1.45233512,3.26971474 C-1.62568073,3.09392691 -1.85080746,3 -2.09905507,3 C-2.34730268,3 -2.5724294,3.09392691 -2.74577501,3.26971474 C-2.83188877,3.35704172 -2.89741982,3.45884906 -2.9403122,3.57194041 C-2.97996462,3.67648919 -3,3.78586077 -3,3.89779397 C-3,4.00139879 -2.98008791,4.10582083 -2.9403122,4.21069468 C-2.89741982,4.32378604 -2.83188877,4.42559337 -2.74610698,4.51258406 L3.39864957,10.7309583 C3.57138701,10.9061299 3.79653772,11 4.04470512,11 C4.29295273,11 4.51807945,10.9060731 4.69176198,10.729944 L10.7451017,4.60427237 C10.9122669,4.43475245 11,4.22038411 11,3.98198745 C11,3.74367339 10.9123246,3.52928072 10.745775,3.36038464 C10.572425,3.18459236 10.345009,3.0906699 10.0926686,3.0906699 C9.84040596,3.0906699 9.61305224,3.18453455 9.43972233,3.36022232 L4.04432655,8.8438172 Z" id="Ic/Arrow/Blue" fill-rule="nonzero" transform="translate(4.000000, 7.000000) rotate(-270.000000) translate(-4.000000, -7.000000) "></path>
                </g>
            </g>
        </g>
    </g>
</svg>