<?xml version="1.0" encoding="UTF-8"?>
<svg width="16px" height="16px" viewBox="0 0 16 16" version="1.1" xmlns="http://www.w3.org/2000/svg" xmlns:xlink="http://www.w3.org/1999/xlink">
    <!-- Generator: Sketch 46.2 (44496) - http://www.bohemiancoding.com/sketch -->
    <title>ic_close_white</title>
    <desc>Created with Sketch.</desc>
    <defs></defs>
    <g id="01" stroke="none" stroke-width="1" fill="none" fill-rule="evenodd">
        <g id="Assets" transform="translate(-136.000000, -602.000000)" fill="#FFFFFF">
            <g id="Ic/Close/White" transform="translate(144.000000, 610.000000) scale(1, -1) translate(-144.000000, -610.000000) translate(136.000000, 602.000000)">
                <path d="M13.7321497,3.56114604 L9.29329572,8 L13.7321497,12.438854 C14.0892834,12.7959877 14.0892834,13.3750159 13.7321497,13.7321497 C13.3750159,14.0892834 12.7959877,14.0892834 12.438854,13.7321497 L8,9.29329572 L3.56114604,13.7321497 C3.20401228,14.0892834 2.62498407,14.0892834 2.26785031,13.7321497 C1.91071656,13.3750159 1.91071656,12.7959877 2.26785031,12.438854 L6.70670428,8 L2.26785031,3.56114604 C1.91071656,3.20401228 1.91071656,2.62498407 2.26785031,2.26785031 C2.62498407,1.91071656 3.20401228,1.91071656 3.56114604,2.26785031 L8,6.70670428 L12.438854,2.26785031 C12.7959877,1.91071656 13.3750159,1.91071656 13.7321497,2.26785031 C14.0892834,2.62498407 14.0892834,3.20401228 13.7321497,3.56114604 Z" id="Ic/Close/Dark"></path>
            </g>
        </g>
    </g>
</svg>