<?xml version="1.0" encoding="UTF-8"?>
<svg width="16px" height="16px" viewBox="0 0 16 16" version="1.1" xmlns="http://www.w3.org/2000/svg" xmlns:xlink="http://www.w3.org/1999/xlink">
    <!-- Generator: Sketch 46.2 (44496) - http://www.bohemiancoding.com/sketch -->
    <title>ic_dropdown_blue</title>
    <desc>Created with Sketch.</desc>
    <defs></defs>
    <g id="01" stroke="none" stroke-width="1" fill="none" fill-rule="evenodd">
        <g id="Assets" transform="translate(-136.000000, -510.000000)" fill="#0088CC">
            <g id="Ic/DropDown/Dark-Gray" transform="translate(136.000000, 510.000000)">
                <g id="Group" transform="translate(3.000000, 5.000000)">
                    <path d="M0.889600672,0 L9.11039933,0 L9.11039933,0 C9.34051797,-4.22721094e-17 9.52706599,0.186548021 9.52706599,0.416666667 C9.52706599,0.51414021 9.49289257,0.608528916 9.43049153,0.683410167 L5.38411062,5.53906726 L5.38411062,5.53906726 C5.20732859,5.7512057 4.89204626,5.77986773 4.67990782,5.6030857 C4.65667629,5.58372609 4.63524899,5.56229879 4.61588938,5.53906726 L0.569508472,0.683410167 L0.569508472,0.683410167 C0.422190105,0.506628126 0.446075132,0.243892834 0.622857172,0.0965744668 C0.697738423,0.0341734247 0.792127128,-3.70672459e-16 0.889600672,-3.88578059e-16 Z" id="Rectangle-2"></path>
                </g>
            </g>
        </g>
    </g>
</svg>