<?xml version="1.0" encoding="UTF-8"?>
<svg width="16px" height="16px" viewBox="0 0 16 16" version="1.1" xmlns="http://www.w3.org/2000/svg" xmlns:xlink="http://www.w3.org/1999/xlink">
    <!-- Generator: Sketch 46.2 (44496) - http://www.bohemiancoding.com/sketch -->
    <title>ic_dropdown_white_line</title>
    <desc>Created with Sketch.</desc>
    <defs></defs>
    <g id="01" stroke="none" stroke-width="1" fill="none" fill-rule="evenodd">
        <g id="Assets" transform="translate(-136.000000, -404.000000)" fill="#FFFFFF">
            <g id="Ic/DropDown/White-2" transform="translate(136.000000, 404.000000)">
                <g id="Group" transform="translate(1.000000, 4.000000)">
                    <path d="M7.04432655,5.8438172 L1.54766488,0.269714735 C1.37431927,0.0939269092 1.14919254,0 0.900944933,0 C0.652697322,0 0.427570599,0.0939269092 0.254224987,0.269714735 C0.168111232,0.357041721 0.102580176,0.458849057 0.0596877981,0.571940412 C0.0200353822,0.676489185 0,0.785860772 0,0.897793969 C0,1.00139879 0.0199120895,1.10582083 0.0596877981,1.21069468 C0.102580176,1.32378604 0.168111232,1.42559337 0.253893018,1.51258406 L6.39864957,7.73095832 C6.57138701,7.90612988 6.79653772,8 7.04470512,8 C7.29295273,8 7.51807945,7.90607309 7.69176198,7.72994396 L13.7451017,1.60427237 C13.9122669,1.43475245 14,1.22038411 14,0.981987452 C14,0.743673391 13.9123246,0.529280721 13.745775,0.36038464 C13.572425,0.184592362 13.345009,0.0906699049 13.0926686,0.0906699049 C12.840406,0.0906699049 12.6130522,0.184534548 12.4397223,0.360222325 L7.04432655,5.8438172 Z" id="Ic/Arrow/Blue" fill-rule="nonzero"></path>
                </g>
            </g>
        </g>
    </g>
</svg>