<?xml version="1.0" encoding="UTF-8"?>
<svg width="24px" height="24px" viewBox="0 0 24 24" version="1.1" xmlns="http://www.w3.org/2000/svg" xmlns:xlink="http://www.w3.org/1999/xlink">
    <!-- Generator: Sketch 46.2 (44496) - http://www.bohemiancoding.com/sketch -->
    <title>ic_step_1</title>
    <desc>Created with Sketch.</desc>
    <defs></defs>
    <g id="01" stroke="none" stroke-width="1" fill="none" fill-rule="evenodd">
        <g id="Assets" transform="translate(-865.000000, -46.000000)" fill="#FFFFFF">
            <g id="ic_step_1" transform="translate(865.000000, 46.000000)">
                <circle id="Oval" fill-opacity="0.300000012" cx="12" cy="12" r="12"></circle>
                <path d="M11.5885714,16.08 L11.5885714,15.5771429 C11.5885714,15.4819043 11.5895238,15.3885719 11.5914286,15.2971429 C11.5933333,15.2057138 11.5961905,15.1219051 11.6,15.0457143 L11.6,15.0514286 C11.6038095,14.8685705 11.6066667,14.6790486 11.6085714,14.4828571 C11.6104762,14.2866657 11.6114286,14.0800011 11.6114286,13.8628571 C11.6114286,13.4438074 11.6066667,13.0095261 11.5971429,12.56 C11.587619,12.1104739 11.5600002,11.6428596 11.5142857,11.1571429 C11.4685712,10.6714261 11.3980957,10.168574 11.3028571,9.64857143 C11.2076186,9.12856883 11.0723818,8.58857423 10.8971429,8.02857143 L12.2285714,7.59428571 C12.4228581,8.2152412 12.5742852,8.81047334 12.6828571,9.38 C12.7914291,9.94952666 12.8714283,10.4942831 12.9228571,11.0142857 C12.974286,11.5342883 13.0057142,12.0323786 13.0171429,12.5085714 C13.0285715,12.9847643 13.0342857,13.4419026 13.0342857,13.88 C13.0342857,14.0971439 13.0333333,14.3057133 13.0314286,14.5057143 C13.0295238,14.7057153 13.0266667,14.8971419 13.0228571,15.08 C13.0190476,15.1561909 13.0161905,15.2390472 13.0142857,15.3285714 C13.0123809,15.4180957 13.0114286,15.508571 13.0114286,15.6 L13.0114286,16.08 L11.5885714,16.08 Z" id="۱"></path>
            </g>
        </g>
    </g>
</svg>