<?xml version="1.0" encoding="UTF-8"?>
<svg width="32px" height="32px" viewBox="0 0 32 32" version="1.1" xmlns="http://www.w3.org/2000/svg" xmlns:xlink="http://www.w3.org/1999/xlink">
    <!-- Generator: Sketch 46.2 (44496) - http://www.bohemiancoding.com/sketch -->
    <title>ic_upload_image</title>
    <desc>Created with Sketch.</desc>
    <defs></defs>
    <g id="01" stroke="none" stroke-width="1" fill="none" fill-rule="evenodd" opacity="0.300000012">
        <g id="Assets" transform="translate(-120.000000, -694.000000)" fill="#CCCCCC">
            <g id="Ic/Upload-Image" transform="translate(120.000000, 694.000000)">
                <g transform="translate(0.000000, 2.000000)" id="Combined-Shape">
                    <path d="M27.7099052,5.34848387 L24.3516385,5.33079435 L21.1340519,0.495868949 C20.9406244,0.194772173 20.6065787,0 20.2549092,0 L11.5868489,0 C11.2351794,0 10.9186954,0.19483468 10.72533,0.478179436 L7.40224874,5.33079435 L4.29015681,5.34848387 C1.93408912,5.34848387 0,7.29664314 0,9.6697883 L0,23.643254 C0,26.0164617 1.93408912,28 4.29009475,28 L27.7099052,28 C30.0659729,28 32,26.0164617 32,23.643254 L32,9.6697883 C32.0000621,7.29664314 30.0659729,5.34848387 27.7099052,5.34848387 Z M29.8901692,23.643254 C29.8901692,24.8475786 28.9055319,25.8747581 27.7099673,25.8747581 L4.29015681,25.8747581 C3.09453018,25.8747581 2.10995489,24.8475786 2.10995489,23.643254 L2.10995489,9.6697883 C2.10995489,8.4654637 3.09459224,7.4737258 4.29015681,7.4737258 L7.96490752,7.4737258 C8.31657701,7.4737258 8.63306093,7.27889112 8.82642641,6.99554637 L12.1495076,2.14293145 L19.6923745,2.14293145 L22.8923993,6.96016734 C23.0858269,7.2435121 23.4198726,7.43834678 23.7539182,7.43834678 L27.6924055,7.47378831 C28.8880322,7.47378831 29.8726075,8.46558872 29.8726075,9.66985081 L29.8726075,23.6433165 L29.8901692,23.6433165 L29.8901692,23.643254 Z M16,8 C11.576505,8 8,11.5953212 8,16.0000332 C8,20.4047452 11.5953063,24 16,24 C20.4046937,24 24,20.4046788 24,15.9999668 C24,11.5952548 20.4046937,8 16,8 Z M16,21.7411733 C12.8376558,21.7411733 10.2588173,19.1623241 10.2588173,15.9999668 C10.2588173,12.8376095 12.8376558,10.2587602 16,10.2587602 C19.1623442,10.2587602 21.7411827,12.8376095 21.7411827,15.9999668 C21.7411827,19.1623241 19.1623442,21.7411733 16,21.7411733 Z M25.5,9 C24.6687077,9 24,9.66864396 24,10.5 C24,11.331356 24.668644,12 25.5,12 C26.331356,12 27,11.331356 27,10.5 C27,9.66864396 26.3312923,9 25.5,9 Z M25.5,11.168644 C25.1204873,11.168644 24.831356,10.8613981 24.831356,10.5 C24.831356,10.1386019 25.1386019,9.83135604 25.5,9.83135604 C25.8614619,9.83135604 26.168644,10.1386019 26.168644,10.5 C26.168644,10.8613981 25.8795127,11.168644 25.5,11.168644 Z" fill-rule="nonzero"></path>
                </g>
            </g>
        </g>
    </g>
</svg>